<svg width="97" height="74" viewBox="0 0 97 74" fill="none" xmlns="http://www.w3.org/2000/svg">
<g clip-path="url(#clip0_1231_649)">
<path d="M48.812 0L19.268 50.4105H59.4324L49.052 33.2033L51.6982 29.0715L48.5444 24.0924L43.3596 33.2562L49.988 45.2015L29.0324 45.0958L48.7587 11.2125L71.5844 50.4105H77.732L48.812 0Z" fill="#231F20"/>
<path d="M0.5 60.1204H12.2609V62.3453H7.71689V73.9982H5.09733V62.3981H0.5V60.1204Z" fill="#231F20"/>
<path d="M14.6591 60.1204V73.9982H17.0911V68.1189H23.8005V73.9982H26.2858V60.1204H23.8538V65.6553H17.0911V60.1204H14.6591Z" fill="#231F20"/>
<path d="M29.7533 60.1204V73.9982H39.3755V71.7821H32.284V67.9682H38.7338V65.8852H32.212V62.3532H39.3755V60.1204H29.7533Z" fill="#231F20"/>
<path d="M57.9373 60.1204V73.9982H67.5595V71.7821H60.468V67.9682H66.9187V65.8852H60.3969V62.3532H67.5595V60.1204H57.9373Z" fill="#231F20"/>
<path d="M78.2778 60.1936H75.1409L70.036 73.9261H72.5249L73.6662 70.9587L79.8885 71.0115L80.9933 73.9296H83.6485L78.2778 60.1936ZM74.3222 68.8368L76.6565 62.7453L78.9018 68.8368H74.3222Z" fill="#231F20"/>
<path d="M85.3658 60.1187V74H87.7507V69.1089L89.0787 67.6521L93.6582 74H96.5L90.9329 66.1776L96.268 60.1187H93.2218L87.7551 65.9663V60.1187H85.3658Z" fill="#231F20"/>
<path d="M50.3418 60.1309C50.3097 60.1239 50.2769 60.1204 50.244 60.1204H43.3613V73.9991H45.7844V69.4189C45.7844 69.4189 51.5044 70.0716 53.1622 67.3526C54.82 64.6336 53.8831 60.8787 50.3418 60.1309ZM48.4218 67.0593H45.7222V62.2924H48.8093C48.8093 62.2924 51.3356 61.9744 51.3622 64.6758C51.3889 67.3772 48.4218 67.0593 48.4218 67.0593Z" fill="#231F20"/>
</g>
<defs>
<clipPath id="clip0_1231_649">
<rect width="96" height="74" fill="white" transform="translate(0.5)"/>
</clipPath>
</defs>
</svg>
